<svg xmlns="http://www.w3.org/2000/svg" viewBox="0 0 690.87 736.42"><defs><style>.cls-1{fill-rule:evenodd;}</style></defs><g id="Layer_2" data-name="Layer 2"><g id="svg"><g id="svgg"><path id="path0" class="cls-1" d="M640.79,3.51C620.16,21,231.15,440.42,226.3,450.45c-2,4.09-.25,8.67,6,16l3,3.54,21.35-22.48c11.74-12.36,22.72-23.47,24.4-24.68,9.06-6.55,21.4,2.46,19.37,14.12-.63,3.6-7.23,11.65-28.43,34.7l-17.28,18.78,2.42,2.7c8.13,9.05,11.65,9.27,20.16,1.28,12.38-11.64,67.5-70.48,228.1-243.48C684.52,58,690.87,51,690.87,46.17c0-3.3-4.76-9.5-19.31-25.18-21.49-23.13-23-24-30.77-17.48M205.92,468.31c-4.35,2.88-22.22,21.54-72.76,76L80.78,600.78,56.41,640.62C11.37,714.22-.71,734.53,0,735.33c2.24,2.41,29.45.54,42.68-2.94,50.72-13.32,120.56-76.47,160.21-144.85,9-15.51,12.64-20.46,26.46-35.92,12.69-14.19,22.32-25.48,25.18-29.55s2.22-5.52-4.81-13.34l-5.9-6.57L213.6,534.45c-31.76,33.9-33.66,35.6-39.6,35.6-7.08,0-13.48-6.85-13.51-14.45,0-3.69,6.91-11.86,45.64-53.85l18.55-20.11-5.82-6.22c-7.06-7.54-9.92-9.11-12.94-7.11"/></g></g></g></svg>