<svg xmlns="http://www.w3.org/2000/svg" viewBox="0 0 291.42 299.94"><defs><style>.cls-1{fill-rule:evenodd;}.cls-2{fill:none;stroke:#fff;stroke-miterlimit:10;stroke-width:7px;}</style></defs><g id="Layer_2" data-name="Layer 2"><g id="svg"><g id="svgg"><path id="path0" class="cls-1" d="M36.35,2.09c-3.48,2.19-5.13,5.73-5.73,12.28l-.51,5.52-4,1.35A38.72,38.72,0,0,0,1.31,48.33c-1.53,5.86-1.82,214-.32,221.2a39.17,39.17,0,0,0,29.22,29.6c3.78.84,27,1,118.7.64l114-.4,6.13-2.92a39.42,39.42,0,0,0,21.39-26.92c1.51-7.25,1.22-215.34-.31-221.2C286.78,35.49,276.53,24.54,264.51,21l-3.2-1-.5-5.57C259.14-3.89,238-5.19,237,13l-.3,6H192.11v-4.6C192.11,6,187.46.57,180.19.58c-7.51,0-12.07,5.06-12.07,13.39v5h-44.8V14c0-8.33-4.56-13.39-12.08-13.39C104,.57,99.32,6,99.31,14.37V19H54.69l-.31-6c-.52-10.32-9.9-16-18-10.88m11.4,5.25,2,2V49.23L47.25,51.3c-2.82,2.37-4.65,2.57-8,.87-3.66-1.89-4.13-5-3.84-25.07l.25-17.87L38,7.3a7.09,7.09,0,0,1,9.79,0M116.09,7c2.39,2.39,2.53,3.81,2.27,23.92l-.25,18.64-2.24,1.93c-3.73,3.21-8.29,2.32-10.55-2-1-1.89-1.21-5.89-1.21-20.72V10.3l2.07-2.47c2.55-3,7.34-3.45,9.91-.88m69.15.88,2.07,2.47V28.67c0,14.83-.23,18.83-1.21,20.72-2.37,4.6-7.17,5.32-10.85,1.65l-2.34-2.34V29.8c0-23.16.32-24.21,7.33-24.36,2.33-.05,3.35.44,5,2.39m68.23-.53,2.24,1.93L256,27.1c.28,20.09-.19,23.18-3.85,25.07-3.3,1.7-5.13,1.5-8-.87l-2.46-2.07V9.3l2-2a7.09,7.09,0,0,1,9.79,0M116.34,104.15c-3.3,1.44-3.25,1.14-3.74,24.1-.43,20.42-.07,23.73,3.33,30.38l1.67,3.25-6,5.35C88,188.36,72,230.46,80.88,248.26c12.4,24.82,101.27,29.37,126.23,6.46,16.72-15.35,1.36-61.31-28.6-85.56-3.3-2.67-6.33-5.15-6.74-5.5s.12-2.37,1.36-4.87c3.53-7.1,4.58-14.68,4.58-33s-.44-20.36-4.89-21.91c-4-1.4-53.17-1.15-56.48.29M172,108.73c.68.68,1,5.37,1,16v15h-55.2V124.24c0-11.68.25-15.63,1-15.94,2.32-.93,52.28-.53,53.24.43m-.26,39.64c-5.16,31.09-49.09,31.09-54.34,0l-.51-3h55.35l-.5,3m-39.91,25.9c10.49,5.16,24.17,3.22,33.2-4.71l2.79-2.45,3.86,2.81c4.61,3.34,4.67,5.88.32,14.05-4.67,8.75-4.25,8.6-25.6,8.6H127.9l-2.73-2.89c-8.93-9.47-10.59-28.69-1.79-20.74a45,45,0,0,0,8.4,5.33m-18.25,3.3c3.44,14.5,9.5,19.8,22.63,19.8h8v12.2a133.92,133.92,0,0,0,.47,13.9c.38,1.41-.19,2-3.29,3.51-11,5.32-7.18,21.58,5,21.59,12.84,0,16.46-18.31,4.34-22-1.81-.54-1.81-.59-1.6-14.69l.22-14.14,8.4-.4c12-.57,17.49-4.89,20.88-16.37,1.36-4.59,1.31-4.6,6.74,1.37,15.47,17,27.78,49.08,23.64,61.62-9,27.35-115.89,27.34-124.92,0-4.34-13.14,7.46-47.33,22.32-64.69,6-7,5.9-7,7.16-1.72M149.83,231c5.94,3.18,3.4,12.73-3.39,12.73-2.88,0-7.13-3.38-7.13-5.68,0-5.55,5.92-9.51,10.52-7.05"/><line class="cls-2" x1="8.14" y1="77.83" x2="283.83" y2="77.83"/></g></g></g></svg>