<svg id="svg" xmlns="http://www.w3.org/2000/svg" xmlns:xlink="http://www.w3.org/1999/xlink" width="400" height="400" viewBox="0, 0, 400,400"><g id="svgg"><path id="path0" d="M359.479 82.474 C 357.003 83.192,349.968 87.369,306.800 113.756 C 255.648 145.022,228.010 161.932,175.843 193.879 C 148.009 210.924,148.026 210.416,175.101 217.187 C 195.242 222.224,194.019 222.189,192.431 217.689 C 188.380 206.207,191.829 195.532,201.296 190.249 C 206.591 187.294,231.459 184.032,264.800 181.919 C 274.830 181.284,270.588 183.329,303.200 163.403 C 317.940 154.397,340.416 140.677,353.147 132.915 C 382.217 115.188,385.797 111.763,386.952 100.572 C 388.333 87.187,374.552 78.108,359.479 82.474 M246.800 87.195 C 211.254 88.696,175.458 92.957,168.603 96.502 C 160.921 100.474,139.407 144.697,125.646 184.800 C 119.907 201.525,136.913 214.550,153.672 206.265 C 167.455 199.452,192.388 166.495,200.822 143.940 C 202.204 140.247,202.922 139.229,203.888 139.600 C 204.581 139.866,214.880 140.282,226.774 140.525 L 248.400 140.966 266.400 129.852 C 276.300 123.739,291.510 114.432,300.200 109.169 C 308.890 103.906,315.891 99.240,315.759 98.800 C 315.313 97.320,300.456 90.431,294.381 88.888 C 286.829 86.968,268.007 86.299,246.800 87.195 M337.597 151.818 C 326.379 158.319,316.077 164.309,314.705 165.130 C 313.333 165.950,311.636 167.922,310.934 169.513 C 304.971 183.030,298.655 185.889,270.000 188.039 C 202.305 193.119,196.478 194.879,197.835 209.842 C 200.574 240.053,249.125 254.271,295.121 238.334 C 303.150 235.552,304.215 235.504,310.013 237.674 C 321.079 241.814,337.505 256.201,346.800 269.896 C 358.059 286.483,371.329 296.437,384.606 298.252 L 389.600 298.935 389.582 228.868 L 389.563 158.800 374.293 149.600 C 365.894 144.540,358.791 140.310,358.508 140.199 C 358.225 140.088,348.815 145.317,337.597 151.818 M120.298 234.955 C 91.544 252.588,48.382 279.000,29.198 290.700 C 16.323 298.552,12.376 302.490,10.562 309.292 C 9.821 312.070,23.695 317.886,33.277 318.814 C 49.615 320.397,61.900 316.281,81.967 302.499 C 90.785 296.443,103.997 287.422,111.326 282.454 C 123.443 274.239,124.771 273.106,125.971 269.964 C 127.355 266.341,135.198 261.146,165.200 243.980 C 182.442 234.114,183.483 233.422,182.174 232.689 C 181.505 232.315,176.873 230.535,171.879 228.733 C 166.886 226.931,158.974 224.075,154.298 222.387 L 145.796 219.318 120.298 234.955 M192.330 236.787 C 174.772 246.159,161.194 254.247,160.946 255.481 C 160.807 256.177,161.858 259.189,163.283 262.173 C 176.758 290.411,204.691 279.021,206.870 244.400 L 207.323 237.200 204.191 234.664 L 201.060 232.128 192.330 236.787 M214.574 247.000 C 213.639 249.090,212.634 252.400,212.340 254.356 C 211.617 259.177,209.344 265.586,206.847 269.847 L 204.782 273.372 206.399 278.607 C 215.371 307.657,242.794 293.966,244.594 259.538 L 245.016 251.476 235.908 249.311 C 230.899 248.120,224.640 246.260,222.000 245.177 C 215.957 242.698,216.565 242.548,214.574 247.000 " stroke="none" fill="#000000" fill-rule="evenodd"></path></g></svg>